<?xml version="1.0" standalone="no"?>
<!DOCTYPE svg PUBLIC "-//W3C//DTD SVG 20010904//EN"
 "http://www.w3.org/TR/2001/REC-SVG-20010904/DTD/svg10.dtd">
<svg version="1.0" xmlns="http://www.w3.org/2000/svg"
 width="1200.000000pt" height="1200.000000pt" viewBox="0 0 1200.000000 1200.000000"
 preserveAspectRatio="xMidYMid meet">

<g transform="translate(0.000000,1200.000000) scale(0.100000,-0.100000)"
fill="#000000" stroke="none">
<path d="M2180 7307 c-38 -19 -49 -61 -23 -95 26 -36 68 -41 99 -11 28 27 31
59 7 87 -24 27 -53 34 -83 19z"/>
<path d="M2630 7213 c-51 -19 -66 -77 -30 -113 51 -51 138 9 109 74 -9 19 -51
50 -62 45 -1 0 -9 -3 -17 -6z"/>
<path d="M1796 7149 c-33 -26 -34 -68 -3 -97 28 -27 58 -28 85 -4 35 29 38 67
8 96 -31 31 -55 33 -90 5z"/>
<path d="M2932 6937 c-12 -13 -22 -33 -22 -46 0 -28 42 -71 70 -71 27 0 70 43
70 70 0 28 -43 70 -73 70 -13 0 -33 -10 -45 -23z"/>
<path d="M1497 6852 c-22 -25 -21 -75 1 -95 25 -22 75 -21 95 1 22 25 21 75
-1 95 -25 22 -75 21 -95 -1z"/>
<path d="M6850 6235 l0 -485 85 0 85 0 0 128 c0 125 1 129 26 153 23 21 27 22
37 8 7 -8 59 -80 117 -158 l104 -142 86 7 c47 4 86 8 88 9 2 2 -62 91 -142
197 -80 107 -146 200 -146 205 0 6 59 67 131 135 l132 123 -89 7 -89 6 -90
-87 c-49 -47 -107 -102 -128 -121 l-38 -35 3 268 3 267 -87 0 -88 0 0 -485z"/>
<path d="M3647 6659 c-139 -33 -220 -145 -196 -273 18 -99 66 -144 256 -240
63 -32 124 -71 138 -87 29 -35 33 -85 11 -128 -46 -88 -249 -77 -329 19 -14
16 -28 30 -30 30 -3 0 -23 -31 -46 -70 l-40 -70 37 -30 c59 -49 150 -74 267
-74 86 0 108 3 155 25 107 50 160 128 160 239 0 128 -45 179 -248 284 -73 37
-141 80 -152 93 -29 37 -26 93 5 123 67 63 225 33 256 -48 8 -22 11 -20 65 40
l56 62 -34 28 c-88 73 -218 104 -331 77z"/>
<path d="M7700 6585 l0 -65 201 0 c157 0 200 -3 196 -12 -3 -7 -98 -159 -211
-337 -195 -307 -206 -327 -206 -373 l0 -48 320 0 320 0 0 76 c0 69 -2 75 -17
68 -10 -5 -107 -10 -217 -12 -162 -3 -198 -1 -194 10 3 7 96 158 207 336 191
307 201 325 201 372 l0 50 -300 0 -300 0 0 -65z"/>
<path d="M4535 6596 c-90 -13 -92 -15 -94 -118 l-1 -58 -70 0 -70 0 0 -60 0
-59 66 -3 66 -3 -1 -173 c-2 -207 11 -273 68 -332 46 -49 121 -67 208 -51 63
12 163 56 163 73 0 5 -7 35 -16 65 -14 49 -17 53 -32 40 -46 -40 -120 -59
-170 -43 -47 16 -57 57 -56 232 0 89 4 169 7 178 5 13 23 16 112 16 l105 0 0
60 0 60 -104 0 c-58 0 -107 3 -109 8 -6 8 8 127 18 160 4 12 3 21 -1 21 -5 -1
-45 -7 -89 -13z"/>
<path d="M1351 6474 c-26 -33 -26 -55 -3 -82 29 -35 67 -38 96 -8 15 14 26 34
26 44 0 33 -38 72 -70 72 -19 0 -36 -9 -49 -26z"/>
<path d="M5315 6427 c-57 -15 -86 -29 -133 -64 l-34 -25 48 -49 c48 -49 48
-49 69 -29 51 48 166 66 226 34 28 -14 68 -79 69 -110 0 -7 -36 -13 -97 -17
-122 -7 -206 -35 -267 -88 -111 -98 -98 -255 27 -321 34 -18 59 -22 127 -22
89 0 129 13 178 57 l22 20 0 -31 0 -32 86 0 85 0 -3 253 -3 252 -29 52 c-29
52 -75 92 -131 113 -46 18 -184 21 -240 7z m241 -409 c-15 -96 -64 -148 -145
-156 -64 -6 -107 11 -119 47 -23 66 23 125 106 136 26 3 54 8 62 9 8 2 35 4
59 5 l44 1 -7 -42z"/>
<path d="M6235 6427 c-109 -37 -177 -95 -222 -192 -25 -53 -28 -72 -28 -155 0
-88 3 -101 33 -162 60 -122 159 -182 302 -182 102 -1 174 22 233 74 l39 35
-45 50 -45 50 -24 -21 c-39 -37 -88 -56 -142 -56 -114 -1 -189 83 -189 212 -1
158 108 256 244 220 51 -14 77 -34 93 -72 l12 -28 54 55 54 55 -46 43 c-26 26
-66 52 -94 61 -66 23 -179 29 -229 13z"/>
<path d="M8744 6422 c-233 -81 -300 -421 -118 -598 132 -129 355 -115 464 30
209 276 -34 675 -346 568z m149 -126 c71 -29 107 -102 107 -216 0 -71 -29
-149 -68 -183 -53 -47 -143 -38 -190 19 -38 45 -52 95 -52 178 0 97 28 156 95
197 36 22 64 24 108 5z"/>
<path d="M9702 6428 c-18 -6 -53 -29 -77 -50 l-45 -40 0 41 0 41 -85 0 -85 0
0 -335 0 -335 85 0 85 0 0 220 c0 200 2 224 20 259 25 50 75 81 129 81 88 0
101 -44 101 -337 l0 -223 80 0 80 0 0 243 c0 133 -5 258 -10 277 -17 60 -64
125 -106 145 -47 22 -126 28 -172 13z"/>
<path d="M10475 6426 c-64 -20 -99 -42 -139 -86 -66 -74 -80 -118 -81 -255 0
-136 14 -180 79 -252 106 -118 343 -133 462 -28 l39 34 -41 41 -41 42 -37 -26
c-66 -44 -165 -46 -234 -4 -35 21 -61 62 -73 116 l-7 32 225 0 225 0 -4 93
c-3 76 -9 103 -31 150 -62 126 -205 186 -342 143z m155 -131 c35 -18 60 -62
60 -105 l0 -30 -140 0 c-134 0 -140 1 -140 20 0 41 49 108 90 123 30 11 102 7
130 -8z"/>
<path d="M1440 6060 c-41 -41 -10 -110 48 -110 60 0 88 56 52 103 -26 33 -71
36 -100 7z"/>
<path d="M2865 5795 c-32 -31 -32 -59 1 -91 19 -20 31 -24 52 -20 59 14 80 76
39 114 -30 29 -62 28 -92 -3z"/>
<path d="M1712 5734 c-60 -41 7 -146 71 -112 30 15 37 27 37 65 0 35 -29 63
-65 63 -11 0 -31 -7 -43 -16z"/>
<path d="M2490 5600 c-24 -24 -26 -57 -4 -88 31 -44 124 -17 124 37 0 10 -9
30 -21 45 -25 32 -70 35 -99 6z"/>
<path d="M2093 5590 c-23 -10 -43 -39 -43 -65 0 -24 46 -65 73 -65 61 0 89 81
41 119 -29 23 -38 24 -71 11z"/>
</g>
</svg>
